<mxfile host="app.diagrams.net" modified="2021-08-09T20:12:48.651Z" agent="5.0 (Windows)" etag="NdCvTPBjz0r6YXXIx6pQ" version="14.9.5" type="github">
  <diagram id="WE3ycICVfiJap_h-WsPn" name="Page-1">
    <mxGraphModel dx="1422" dy="772" grid="1" gridSize="10" guides="1" tooltips="1" connect="1" arrows="1" fold="1" page="1" pageScale="1" pageWidth="827" pageHeight="1169" math="0" shadow="0">
      <root>
        <mxCell id="0" />
        <mxCell id="1" parent="0" />
        <mxCell id="R6FNjjUilucGz8gVXUsp-7" value="" style="aspect=fixed;perimeter=ellipsePerimeter;html=1;align=center;shadow=0;dashed=0;fontColor=#4277BB;labelBackgroundColor=#ffffff;fontSize=12;spacingTop=3;image;image=img/lib/ibm/applications/app_server.svg;" vertex="1" parent="1">
          <mxGeometry x="413.2" y="290" width="60" height="60" as="geometry" />
        </mxCell>
        <mxCell id="R6FNjjUilucGz8gVXUsp-22" style="edgeStyle=orthogonalEdgeStyle;rounded=0;orthogonalLoop=1;jettySize=auto;html=1;" edge="1" parent="1" source="R6FNjjUilucGz8gVXUsp-8">
          <mxGeometry relative="1" as="geometry">
            <mxPoint x="101" y="240" as="targetPoint" />
          </mxGeometry>
        </mxCell>
        <mxCell id="R6FNjjUilucGz8gVXUsp-27" style="edgeStyle=orthogonalEdgeStyle;rounded=0;orthogonalLoop=1;jettySize=auto;html=1;entryX=0;entryY=0.25;entryDx=0;entryDy=0;" edge="1" parent="1" source="R6FNjjUilucGz8gVXUsp-8" target="R6FNjjUilucGz8gVXUsp-7">
          <mxGeometry relative="1" as="geometry">
            <Array as="points">
              <mxPoint x="120" y="310" />
              <mxPoint x="416" y="310" />
            </Array>
          </mxGeometry>
        </mxCell>
        <mxCell id="R6FNjjUilucGz8gVXUsp-32" style="edgeStyle=orthogonalEdgeStyle;rounded=0;orthogonalLoop=1;jettySize=auto;html=1;exitX=0;exitY=0;exitDx=0;exitDy=0;" edge="1" parent="1" source="R6FNjjUilucGz8gVXUsp-8" target="R6FNjjUilucGz8gVXUsp-13">
          <mxGeometry relative="1" as="geometry">
            <Array as="points">
              <mxPoint x="72" y="90" />
            </Array>
          </mxGeometry>
        </mxCell>
        <mxCell id="R6FNjjUilucGz8gVXUsp-8" value="" style="aspect=fixed;perimeter=ellipsePerimeter;html=1;align=center;shadow=0;dashed=0;fontColor=#4277BB;labelBackgroundColor=#ffffff;fontSize=12;spacingTop=3;image;image=img/lib/ibm/applications/microservice.svg;" vertex="1" parent="1">
          <mxGeometry x="60" y="360" width="82.2" height="60" as="geometry" />
        </mxCell>
        <mxCell id="R6FNjjUilucGz8gVXUsp-26" style="edgeStyle=orthogonalEdgeStyle;rounded=0;orthogonalLoop=1;jettySize=auto;html=1;entryX=0;entryY=0.5;entryDx=0;entryDy=0;" edge="1" parent="1" source="R6FNjjUilucGz8gVXUsp-9" target="R6FNjjUilucGz8gVXUsp-7">
          <mxGeometry relative="1" as="geometry" />
        </mxCell>
        <mxCell id="R6FNjjUilucGz8gVXUsp-33" style="edgeStyle=orthogonalEdgeStyle;rounded=0;orthogonalLoop=1;jettySize=auto;html=1;exitX=0.5;exitY=0;exitDx=0;exitDy=0;" edge="1" parent="1" source="R6FNjjUilucGz8gVXUsp-9" target="R6FNjjUilucGz8gVXUsp-17">
          <mxGeometry relative="1" as="geometry" />
        </mxCell>
        <mxCell id="R6FNjjUilucGz8gVXUsp-9" value="" style="aspect=fixed;perimeter=ellipsePerimeter;html=1;align=center;shadow=0;dashed=0;fontColor=#4277BB;labelBackgroundColor=#ffffff;fontSize=12;spacingTop=3;image;image=img/lib/ibm/applications/microservice.svg;" vertex="1" parent="1">
          <mxGeometry x="190" y="360" width="82.2" height="60" as="geometry" />
        </mxCell>
        <mxCell id="R6FNjjUilucGz8gVXUsp-19" style="edgeStyle=orthogonalEdgeStyle;rounded=0;orthogonalLoop=1;jettySize=auto;html=1;exitX=1;exitY=0.5;exitDx=0;exitDy=0;entryX=0;entryY=0.5;entryDx=0;entryDy=0;" edge="1" parent="1" source="R6FNjjUilucGz8gVXUsp-10" target="R6FNjjUilucGz8gVXUsp-12">
          <mxGeometry relative="1" as="geometry" />
        </mxCell>
        <mxCell id="R6FNjjUilucGz8gVXUsp-28" style="edgeStyle=orthogonalEdgeStyle;rounded=0;orthogonalLoop=1;jettySize=auto;html=1;entryX=0;entryY=0;entryDx=0;entryDy=0;" edge="1" parent="1" source="R6FNjjUilucGz8gVXUsp-10" target="R6FNjjUilucGz8gVXUsp-7">
          <mxGeometry relative="1" as="geometry">
            <Array as="points">
              <mxPoint x="131" y="280" />
              <mxPoint x="422" y="280" />
            </Array>
          </mxGeometry>
        </mxCell>
        <mxCell id="R6FNjjUilucGz8gVXUsp-30" style="edgeStyle=orthogonalEdgeStyle;rounded=0;orthogonalLoop=1;jettySize=auto;html=1;entryX=0;entryY=0.75;entryDx=0;entryDy=0;" edge="1" parent="1" source="R6FNjjUilucGz8gVXUsp-10" target="R6FNjjUilucGz8gVXUsp-13">
          <mxGeometry relative="1" as="geometry">
            <Array as="points">
              <mxPoint x="120" y="103" />
            </Array>
          </mxGeometry>
        </mxCell>
        <mxCell id="R6FNjjUilucGz8gVXUsp-10" value="" style="aspect=fixed;perimeter=ellipsePerimeter;html=1;align=center;shadow=0;dashed=0;fontColor=#4277BB;labelBackgroundColor=#ffffff;fontSize=12;spacingTop=3;image;image=img/lib/ibm/applications/microservice.svg;" vertex="1" parent="1">
          <mxGeometry x="90" y="180" width="82.2" height="60" as="geometry" />
        </mxCell>
        <mxCell id="R6FNjjUilucGz8gVXUsp-20" style="edgeStyle=orthogonalEdgeStyle;rounded=0;orthogonalLoop=1;jettySize=auto;html=1;" edge="1" parent="1" source="R6FNjjUilucGz8gVXUsp-11" target="R6FNjjUilucGz8gVXUsp-8">
          <mxGeometry relative="1" as="geometry" />
        </mxCell>
        <mxCell id="R6FNjjUilucGz8gVXUsp-21" style="edgeStyle=orthogonalEdgeStyle;rounded=0;orthogonalLoop=1;jettySize=auto;html=1;entryX=0.5;entryY=1;entryDx=0;entryDy=0;" edge="1" parent="1" source="R6FNjjUilucGz8gVXUsp-11" target="R6FNjjUilucGz8gVXUsp-9">
          <mxGeometry relative="1" as="geometry" />
        </mxCell>
        <mxCell id="R6FNjjUilucGz8gVXUsp-25" style="edgeStyle=orthogonalEdgeStyle;rounded=0;orthogonalLoop=1;jettySize=auto;html=1;" edge="1" parent="1" source="R6FNjjUilucGz8gVXUsp-11" target="R6FNjjUilucGz8gVXUsp-16">
          <mxGeometry relative="1" as="geometry" />
        </mxCell>
        <mxCell id="R6FNjjUilucGz8gVXUsp-29" style="edgeStyle=orthogonalEdgeStyle;rounded=0;orthogonalLoop=1;jettySize=auto;html=1;" edge="1" parent="1" source="R6FNjjUilucGz8gVXUsp-11">
          <mxGeometry relative="1" as="geometry">
            <mxPoint x="220" y="70" as="targetPoint" />
            <Array as="points">
              <mxPoint x="30" y="530" />
              <mxPoint x="30" y="70" />
              <mxPoint x="217" y="70" />
            </Array>
          </mxGeometry>
        </mxCell>
        <mxCell id="R6FNjjUilucGz8gVXUsp-11" value="" style="aspect=fixed;perimeter=ellipsePerimeter;html=1;align=center;shadow=0;dashed=0;fontColor=#4277BB;labelBackgroundColor=#ffffff;fontSize=12;spacingTop=3;image;image=img/lib/ibm/applications/microservice.svg;" vertex="1" parent="1">
          <mxGeometry x="120" y="500" width="82.2" height="60" as="geometry" />
        </mxCell>
        <mxCell id="R6FNjjUilucGz8gVXUsp-24" style="edgeStyle=orthogonalEdgeStyle;rounded=0;orthogonalLoop=1;jettySize=auto;html=1;entryX=0.5;entryY=0;entryDx=0;entryDy=0;exitX=1;exitY=0.5;exitDx=0;exitDy=0;" edge="1" parent="1" source="R6FNjjUilucGz8gVXUsp-12" target="R6FNjjUilucGz8gVXUsp-7">
          <mxGeometry relative="1" as="geometry" />
        </mxCell>
        <mxCell id="R6FNjjUilucGz8gVXUsp-31" style="edgeStyle=orthogonalEdgeStyle;rounded=0;orthogonalLoop=1;jettySize=auto;html=1;entryX=1;entryY=0.5;entryDx=0;entryDy=0;" edge="1" parent="1" source="R6FNjjUilucGz8gVXUsp-12" target="R6FNjjUilucGz8gVXUsp-13">
          <mxGeometry relative="1" as="geometry">
            <Array as="points">
              <mxPoint x="360" y="90" />
            </Array>
          </mxGeometry>
        </mxCell>
        <mxCell id="R6FNjjUilucGz8gVXUsp-12" value="" style="aspect=fixed;perimeter=ellipsePerimeter;html=1;align=center;shadow=0;dashed=0;fontColor=#4277BB;labelBackgroundColor=#ffffff;fontSize=12;spacingTop=3;image;image=img/lib/ibm/applications/microservice.svg;" vertex="1" parent="1">
          <mxGeometry x="331" y="180" width="82.2" height="60" as="geometry" />
        </mxCell>
        <mxCell id="R6FNjjUilucGz8gVXUsp-13" value="" style="aspect=fixed;perimeter=ellipsePerimeter;html=1;align=center;shadow=0;dashed=0;fontColor=#4277BB;labelBackgroundColor=#ffffff;fontSize=12;spacingTop=3;image;image=img/lib/ibm/applications/app_server.svg;" vertex="1" parent="1">
          <mxGeometry x="217.2" y="60" width="60" height="60" as="geometry" />
        </mxCell>
        <mxCell id="R6FNjjUilucGz8gVXUsp-34" style="edgeStyle=orthogonalEdgeStyle;rounded=0;orthogonalLoop=1;jettySize=auto;html=1;entryX=1;entryY=0.5;entryDx=0;entryDy=0;" edge="1" parent="1" source="R6FNjjUilucGz8gVXUsp-15" target="R6FNjjUilucGz8gVXUsp-7">
          <mxGeometry relative="1" as="geometry" />
        </mxCell>
        <mxCell id="R6FNjjUilucGz8gVXUsp-15" value="" style="aspect=fixed;perimeter=ellipsePerimeter;html=1;align=center;shadow=0;dashed=0;fontColor=#4277BB;labelBackgroundColor=#ffffff;fontSize=12;spacingTop=3;image;image=img/lib/ibm/applications/app_server.svg;" vertex="1" parent="1">
          <mxGeometry x="580" y="80" width="60" height="60" as="geometry" />
        </mxCell>
        <mxCell id="R6FNjjUilucGz8gVXUsp-16" value="Config Server" style="text;html=1;align=center;verticalAlign=middle;resizable=0;points=[];autosize=1;strokeColor=none;" vertex="1" parent="1">
          <mxGeometry x="400" y="350" width="90" height="20" as="geometry" />
        </mxCell>
        <mxCell id="R6FNjjUilucGz8gVXUsp-17" value="Admin Server" style="text;html=1;align=center;verticalAlign=middle;resizable=0;points=[];autosize=1;strokeColor=none;" vertex="1" parent="1">
          <mxGeometry x="202.2" y="120" width="90" height="20" as="geometry" />
        </mxCell>
        <mxCell id="R6FNjjUilucGz8gVXUsp-18" value="Eureka Server" style="text;html=1;align=center;verticalAlign=middle;resizable=0;points=[];autosize=1;strokeColor=none;" vertex="1" parent="1">
          <mxGeometry x="565" y="140" width="90" height="20" as="geometry" />
        </mxCell>
        <mxCell id="R6FNjjUilucGz8gVXUsp-23" value="Clients Service" style="text;html=1;align=center;verticalAlign=middle;resizable=0;points=[];autosize=1;strokeColor=none;" vertex="1" parent="1">
          <mxGeometry x="318.2" y="240" width="100" height="20" as="geometry" />
        </mxCell>
      </root>
    </mxGraphModel>
  </diagram>
</mxfile>
